<svg width="24" height="24" viewBox="0 0 24 24" fill="none" xmlns="http://www.w3.org/2000/svg">
<g opacity="0.88">
<path d="M4.98292 7.19704C6.19132 7.19704 7.17092 6.21744 7.17092 5.00904C7.17092 3.80065 6.19132 2.82104 4.98292 2.82104C3.77452 2.82104 2.79492 3.80065 2.79492 5.00904C2.79492 6.21744 3.77452 7.19704 4.98292 7.19704Z" fill="white"/>
<path d="M9.23673 8.85505V20.9941H13.0057V14.9911C13.0057 13.4071 13.3037 11.8731 15.2677 11.8731C17.2047 11.8731 17.2287 13.6841 17.2287 15.0911V20.9951H20.9997V14.3381C20.9997 11.0681 20.2957 8.55505 16.4737 8.55505C14.6387 8.55505 13.4087 9.56205 12.9057 10.5151H12.8547V8.85505H9.23673ZM3.09473 8.85505H6.86973V20.9941H3.09473V8.85505Z" fill="white"/>
</g>
</svg>
