<svg width="20" height="19" viewBox="0 0 20 19" fill="none" xmlns="http://www.w3.org/2000/svg">
<g filter="url(#filter0_d)">
<path d="M15.2181 12.8187C14.948 13.0887 14.5817 13.2404 14.1999 13.2404C13.818 13.2404 13.4517 13.0887 13.1817 12.8187L10.0005 9.18269L6.81925 12.8175C6.68594 12.953 6.52711 13.0608 6.35194 13.1346C6.17677 13.2084 5.98871 13.2468 5.79863 13.2476C5.60854 13.2483 5.42018 13.2115 5.24441 13.1391C5.06864 13.0667 4.90894 12.9602 4.77453 12.8258C4.64011 12.6914 4.53364 12.5317 4.46126 12.3559C4.38887 12.1802 4.352 11.9918 4.35277 11.8017C4.35355 11.6116 4.39195 11.4236 4.46577 11.2484C4.53958 11.0732 4.64735 10.9144 4.78285 10.7811L8.09245 7.00109L4.78165 3.21869C4.64615 3.08537 4.53838 2.92655 4.46457 2.75138C4.39075 2.5762 4.35235 2.38815 4.35157 2.19806C4.3508 2.00797 4.38767 1.81961 4.46006 1.64384C4.53244 1.46807 4.63891 1.30838 4.77333 1.17396C4.90774 1.03955 5.06744 0.933078 5.24321 0.860692C5.41898 0.788305 5.60734 0.751435 5.79743 0.752209C5.98751 0.752983 6.17557 0.791386 6.35074 0.865201C6.52591 0.939017 6.68474 1.04679 6.81805 1.18229L10.0005 4.81949L13.1817 1.18229C13.315 1.04679 13.4738 0.939017 13.649 0.865201C13.8241 0.791386 14.0122 0.752983 14.2023 0.752209C14.3924 0.751435 14.5807 0.788305 14.7565 0.860692C14.9323 0.933078 15.092 1.03955 15.2264 1.17396C15.3608 1.30838 15.4673 1.46807 15.5397 1.64384C15.612 1.81961 15.6489 2.00797 15.6481 2.19806C15.6474 2.38815 15.609 2.5762 15.5351 2.75138C15.4613 2.92655 15.3536 3.08537 15.2181 3.21869L11.9085 7.00109L15.2181 10.7811C15.3519 10.9148 15.4582 11.0736 15.5306 11.2485C15.6031 11.4233 15.6404 11.6107 15.6404 11.7999C15.6404 11.9891 15.6031 12.1765 15.5306 12.3513C15.4582 12.5261 15.3519 12.685 15.2181 12.8187Z" fill="white"/>
</g>
<defs>
<filter id="filter0_d" x="0.351562" y="0.752197" width="19.2966" height="20.4954" filterUnits="userSpaceOnUse" color-interpolation-filters="sRGB">
<feFlood flood-opacity="0" result="BackgroundImageFix"/>
<feColorMatrix in="SourceAlpha" type="matrix" values="0 0 0 0 0 0 0 0 0 0 0 0 0 0 0 0 0 0 127 0" result="hardAlpha"/>
<feOffset dy="4"/>
<feGaussianBlur stdDeviation="2"/>
<feComposite in2="hardAlpha" operator="out"/>
<feColorMatrix type="matrix" values="0 0 0 0 0 0 0 0 0 0 0 0 0 0 0 0 0 0 0.25 0"/>
<feBlend mode="normal" in2="BackgroundImageFix" result="effect1_dropShadow"/>
<feBlend mode="normal" in="SourceGraphic" in2="effect1_dropShadow" result="shape"/>
</filter>
</defs>
</svg>
