<svg width="24" height="24" viewBox="0 0 24 24" fill="none" xmlns="http://www.w3.org/2000/svg">
<path d="M7 5.25C7 5.05109 7.07902 4.86032 7.21967 4.71967C7.36032 4.57902 7.55109 4.5 7.75 4.5H20.25C20.4489 4.5 20.6397 4.57902 20.7803 4.71967C20.921 4.86032 21 5.05109 21 5.25C21 5.44891 20.921 5.63968 20.7803 5.78033C20.6397 5.92098 20.4489 6 20.25 6H7.75C7.55109 6 7.36032 5.92098 7.21967 5.78033C7.07902 5.63968 7 5.44891 7 5.25ZM3 11.25C3 11.0511 3.07902 10.8603 3.21967 10.7197C3.36032 10.579 3.55109 10.5 3.75 10.5H20.25C20.4489 10.5 20.6397 10.579 20.7803 10.7197C20.921 10.8603 21 11.0511 21 11.25C21 11.4489 20.921 11.6397 20.7803 11.7803C20.6397 11.921 20.4489 12 20.25 12H3.75C3.55109 12 3.36032 11.921 3.21967 11.7803C3.07902 11.6397 3 11.4489 3 11.25ZM7 17.25C7 17.0511 7.07902 16.8603 7.21967 16.7197C7.36032 16.579 7.55109 16.5 7.75 16.5H20.25C20.4489 16.5 20.6397 16.579 20.7803 16.7197C20.921 16.8603 21 17.0511 21 17.25C21 17.4489 20.921 17.6397 20.7803 17.7803C20.6397 17.921 20.4489 18 20.25 18H7.75C7.55109 18 7.36032 17.921 7.21967 17.7803C7.07902 17.6397 7 17.4489 7 17.25Z" fill="white"/>
</svg>
