<svg width="80" height="80" viewBox="0 0 80 80" fill="none" xmlns="http://www.w3.org/2000/svg">
<path d="M16.2519 22.9304L20.2334 35.4438H20.386L24.3749 22.9304H28.2349L22.5571 39.4008H18.0697L12.3838 22.9304H16.2519Z" fill="#5452F6"/>
<path d="M30.7402 39.401C29.95 39.401 29.2476 39.263 28.6327 38.9869C28.0367 38.7276 27.5293 38.3 27.1727 37.7566C26.8167 37.2134 26.6387 36.5336 26.6387 35.7173C26.6387 35.0314 26.7646 34.4551 27.0165 33.9884C27.259 33.5321 27.6132 33.1447 28.0461 32.8625C28.5017 32.5689 29.002 32.3515 29.5276 32.2188C30.1016 32.0711 30.6864 31.9691 31.2764 31.9136C31.995 31.839 32.574 31.7679 33.0135 31.7003C33.453 31.6326 33.772 31.5321 33.9705 31.3988C34.0669 31.334 34.1449 31.2454 34.1968 31.1416C34.2487 31.0377 34.2729 30.9222 34.2668 30.8062V30.7573C34.2668 30.2482 34.1073 29.8531 33.7883 29.5721C33.4693 29.2911 33.0177 29.1519 32.4335 29.1543C31.8162 29.1543 31.3256 29.2896 30.9616 29.5603C30.6131 29.8087 30.3582 30.1672 30.2379 30.578L27.069 30.3203C27.2161 29.6001 27.5439 28.9292 28.0216 28.3706C28.5183 27.8037 29.1466 27.3675 29.8513 27.1003C30.5994 26.804 31.4666 26.6558 32.4527 26.6558C33.1185 26.6534 33.782 26.7345 34.4276 26.8973C35.0278 27.0449 35.5969 27.2982 36.1083 27.6454C36.5945 27.9785 36.9932 28.4239 37.2705 28.944C37.554 29.4719 37.696 30.1032 37.6964 30.838V39.1677H34.4476V37.4544H34.3513C34.1524 37.8408 33.8822 38.1861 33.555 38.4721C33.2033 38.7752 32.7963 39.0073 32.3565 39.1558C31.8352 39.3276 31.2889 39.4105 30.7402 39.401ZM31.7209 37.0373C32.1832 37.0463 32.6408 36.9429 33.0542 36.7358C33.4239 36.5494 33.7375 36.2682 33.9631 35.921C34.1857 35.5722 34.3013 35.1659 34.2957 34.7521V33.4418C34.1588 33.5244 34.0113 33.5879 33.8572 33.6306C33.652 33.692 33.4438 33.743 33.2335 33.7832C33.0034 33.8292 32.773 33.8694 32.5424 33.904C32.3118 33.9385 32.1024 33.9706 31.9142 34.0003C31.5525 34.0483 31.1984 34.1429 30.8609 34.2818C30.5865 34.3908 30.3452 34.5695 30.1609 34.8003C29.9896 35.0341 29.902 35.3187 29.912 35.6084C29.912 36.0751 30.0821 36.4304 30.4224 36.6743C30.7626 36.9183 31.1955 37.0393 31.7209 37.0373Z" fill="#5452F6"/>
<path d="M38.8955 39.4006V27.0473H42.217V29.2028H42.3459C42.5711 28.4359 42.9491 27.8557 43.4799 27.4621C44.009 27.0678 44.6535 26.8595 45.3133 26.8695C45.4987 26.8702 45.6839 26.8808 45.8681 26.9013C46.0442 26.9191 46.2189 26.9486 46.3911 26.9895V30.0265C46.1724 29.9669 45.9496 29.924 45.7244 29.8984C45.4659 29.8625 45.2053 29.8437 44.9444 29.8421C44.4748 29.8335 44.0109 29.9454 43.597 30.1673C43.2099 30.3802 42.8883 30.6947 42.6666 31.0769C42.4342 31.4822 42.3162 31.9431 42.3251 32.4102V39.3991L38.8955 39.4006Z" fill="#5452F6"/>
<path d="M26.3467 57.0696C25.5531 57.0696 24.8459 56.9308 24.2252 56.6533C23.625 56.3922 23.1142 55.9615 22.7556 55.414C22.397 54.8668 22.2178 54.1826 22.2178 53.3614C22.2178 52.67 22.3444 52.0898 22.5978 51.6206C22.8423 51.1614 23.1991 50.7716 23.6348 50.4873C24.0944 50.1916 24.599 49.9727 25.1289 49.8392C25.7068 49.6903 26.2955 49.5876 26.8896 49.5317C27.6126 49.4562 28.1953 49.3846 28.6378 49.3169C29.0802 49.2493 29.4012 49.1483 29.6007 49.014C29.6985 48.9488 29.7776 48.8592 29.8302 48.7541C29.8828 48.649 29.9071 48.532 29.9007 48.4147V48.3658C29.9007 47.8532 29.74 47.4564 29.4185 47.1754C29.097 46.8944 28.6425 46.7542 28.0548 46.7547C27.4336 46.7547 26.9398 46.891 26.5733 47.1636C26.2226 47.4139 25.966 47.7746 25.8444 48.188L22.6548 47.9258C22.8014 47.2007 23.1302 46.5249 23.6104 45.9621C24.1103 45.3915 24.7426 44.9522 25.4518 44.6828C26.2054 44.3836 27.0785 44.2339 28.0711 44.2339C28.7413 44.2314 29.4092 44.3128 30.0593 44.4762C30.6634 44.6249 31.2363 44.88 31.7511 45.2295C32.2408 45.5647 32.6423 46.0132 32.9215 46.5369C33.2074 47.0688 33.3504 47.7043 33.3504 48.4436V56.8347H30.0793V55.111H29.9822C29.7823 55.5001 29.5103 55.8478 29.1807 56.1355C28.8268 56.4407 28.417 56.6744 27.9741 56.8236C27.4493 56.9965 26.8991 57.0796 26.3467 57.0696ZM27.3341 54.6895C27.8 54.699 28.2612 54.5948 28.6778 54.3858C29.0504 54.1983 29.3662 53.9147 29.5926 53.5644C29.8161 53.214 29.9323 52.8058 29.9267 52.3903V51.0703C29.788 51.1539 29.6384 51.2179 29.4822 51.2606C29.2956 51.3169 29.0867 51.3688 28.8548 51.4147C28.623 51.4606 28.3904 51.5006 28.1585 51.5355C27.9267 51.5703 27.7141 51.6021 27.5267 51.6288C27.1623 51.6772 26.8058 51.7726 26.4659 51.9125C26.1902 52.0215 25.9475 52.2002 25.7615 52.431C25.5884 52.6666 25.4999 52.9537 25.5104 53.2458C25.5104 53.7155 25.6817 54.0732 26.0244 54.3192C26.3672 54.5651 26.8037 54.6886 27.3341 54.6895Z" fill="#5452F6"/>
<path d="M34.4531 56.8671V40.2849H37.7124V46.5182H37.8176C37.9908 46.1488 38.2128 45.8042 38.4776 45.4938C38.7906 45.127 39.1766 44.8293 39.6109 44.6197C40.0776 44.3851 40.6593 44.2676 41.3561 44.2671C42.2429 44.2614 43.113 44.5072 43.8658 44.976C44.6317 45.4491 45.2445 46.1607 45.7043 47.1108C46.164 48.0609 46.3934 49.2461 46.3924 50.6664C46.3924 52.053 46.1702 53.2229 45.7258 54.176C45.2813 55.1291 44.6766 55.8496 43.9117 56.3375C43.1473 56.8263 42.2567 57.081 41.3495 57.0701C40.6798 57.0701 40.1119 56.9594 39.6457 56.7382C39.2103 56.5406 38.8202 56.2554 38.4998 55.9004C38.2237 55.5945 37.9945 55.2493 37.8198 54.876H37.6657V56.8678L34.4531 56.8671ZM37.6383 50.6493C37.6383 51.3901 37.7408 52.035 37.9457 52.5841C38.1507 53.1333 38.447 53.5612 38.8346 53.8678C39.2238 54.172 39.6961 54.3244 40.2517 54.3249C40.8072 54.3254 41.2823 54.1703 41.6769 53.8597C42.066 53.5491 42.3623 53.1172 42.5658 52.5641C42.7783 51.9486 42.8811 51.3005 42.8695 50.6493C42.8695 49.9318 42.7695 49.3002 42.5695 48.7545C42.3695 48.2088 42.0754 47.7824 41.6872 47.4753C41.2986 47.1676 40.8208 47.0138 40.2539 47.0138C39.687 47.0138 39.2134 47.1619 38.8331 47.4582C38.447 47.7545 38.1507 48.1743 37.9442 48.7175C37.7378 49.2607 37.6361 49.9046 37.6391 50.6493H37.6383Z" fill="#5452F6"/>
<path d="M51.0202 26.8694V57.0694H47.5713V26.8694H51.0202Z" fill="#5452F6"/>
<path d="M58.3219 57.0698C57.0429 57.0698 55.9432 56.8095 55.0227 56.289C54.1108 55.7772 53.3713 55.0064 52.8975 54.0742C52.4002 53.1157 52.1519 51.9799 52.1523 50.6668C52.1523 49.3878 52.4007 48.2651 52.8975 47.2987C53.3673 46.3596 54.0963 45.5748 54.9983 45.0372C55.9029 44.4974 56.9647 44.2276 58.1834 44.2276C58.9661 44.2206 59.7438 44.3535 60.4797 44.6201C61.1782 44.8742 61.8136 45.2759 62.3427 45.7979C62.896 46.3564 63.32 47.0295 63.5849 47.7698C63.8812 48.5599 64.0293 49.4841 64.0293 50.5424V51.4898H53.5286V49.3542H60.7834C60.7923 48.8935 60.6807 48.4385 60.4597 48.0342C60.2497 47.6571 59.9402 47.3447 59.5649 47.1313C59.1605 46.9068 58.7037 46.7938 58.2412 46.8038C57.7542 46.7942 57.274 46.9187 56.8531 47.1639C56.4588 47.3956 56.1331 47.7279 55.9094 48.1268C55.6806 48.5363 55.5607 48.9977 55.5612 49.4668V51.4987C55.5612 52.114 55.676 52.6458 55.9057 53.0942C56.1213 53.5286 56.4608 53.8895 56.8812 54.1312C57.302 54.3742 57.8012 54.4957 58.379 54.4957C58.7364 54.4997 59.092 54.4449 59.4316 54.3335C59.7355 54.2332 60.0137 54.0673 60.2464 53.8475C60.477 53.6258 60.6543 53.3545 60.7649 53.0542L63.9545 53.2646C63.804 54.0063 63.462 54.6958 62.9627 55.2646C62.4353 55.854 61.7751 56.3092 61.0368 56.5927C60.2526 56.9108 59.3476 57.0698 58.3219 57.0698Z" fill="#5452F6"/>
<path d="M49.2953 26.0815C48.8759 26.0805 48.4741 25.9135 48.1775 25.617C47.881 25.3205 47.714 24.9186 47.713 24.4993C47.7103 24.2927 47.7501 24.0878 47.83 23.8973C47.9099 23.7067 48.0282 23.5347 48.1775 23.3919C48.4722 23.0974 48.8719 22.9319 49.2886 22.9319C49.7053 22.9319 50.105 23.0974 50.3997 23.3919C50.6521 23.6326 50.8149 23.9523 50.8611 24.298C50.9073 24.6437 50.8342 24.9948 50.6538 25.2934C50.5109 25.5287 50.3128 25.7257 50.0768 25.8675C49.8411 26.0096 49.5705 26.0837 49.2953 26.0815Z" fill="#5452F6"/>
<path d="M66.0336 57.0696C65.6143 57.0686 65.2124 56.9016 64.9159 56.6051C64.6193 56.3086 64.4523 55.9067 64.4514 55.4874C64.4481 55.2802 64.4877 55.0746 64.5676 54.8834C64.6475 54.6922 64.7661 54.5195 64.9158 54.3763C65.2106 54.0817 65.6102 53.9163 66.0269 53.9163C66.4436 53.9163 66.8433 54.0817 67.138 54.3763C67.3904 54.6172 67.5531 54.9369 67.5992 55.2828C67.6454 55.6286 67.5724 55.9798 67.3921 56.2785C67.2489 56.5134 67.0509 56.7101 66.8151 56.8518C66.5797 56.9951 66.3092 57.0705 66.0336 57.0696Z" fill="#5452F6"/>
</svg>
