<svg width="56" height="56" viewBox="0 0 56 56" fill="none" xmlns="http://www.w3.org/2000/svg">
<g clip-path="url(#clip0)">
<path d="M21.4481 40V23.8072H16.3035V40H21.4481ZM18.8765 21.595C20.6705 21.595 21.7872 20.3516 21.7872 18.7977C21.7538 17.2088 20.6706 15.9999 18.9105 15.9999C17.1508 15.9999 16 17.2089 16 18.7977C16 20.3517 17.1164 21.595 18.8429 21.595H18.8763H18.8765ZM24.2957 40H29.4403V30.9571C29.4403 30.4732 29.4737 29.9897 29.6096 29.6437C29.9815 28.6768 30.828 27.6753 32.2491 27.6753C34.1108 27.6753 34.8555 29.1603 34.8555 31.3371V39.9998H39.9998V30.7151C39.9998 25.7413 37.4617 23.427 34.0769 23.427C31.3016 23.427 30.083 25.05 29.4061 26.1553H29.4404V23.8069H24.2958C24.3633 25.3263 24.2958 39.9996 24.2958 39.9996L24.2957 40Z" fill="black"/>
</g>
<circle cx="28" cy="28" r="27.5" stroke="#0A0A0B"/>
<defs>
<clipPath id="clip0">
<rect width="24" height="24" fill="white" transform="translate(16 16)"/>
</clipPath>
</defs>
</svg>
