<svg width="56" height="56" viewBox="0 0 56 56" fill="none" xmlns="http://www.w3.org/2000/svg">
<path d="M23.539 38.5C32.596 38.5 37.5505 30.9955 37.5505 24.499C37.5505 24.289 37.5505 24.076 37.5415 23.866C38.5061 23.1677 39.3386 22.3032 40 21.313C39.099 21.7103 38.1441 21.9721 37.1665 22.09C38.1963 21.4745 38.9676 20.506 39.337 19.3645C38.3695 19.9377 37.3105 20.3401 36.2065 20.554C35.4643 19.7635 34.4821 19.2399 33.4121 19.0641C32.3421 18.8884 31.2441 19.0704 30.288 19.5819C29.3319 20.0934 28.5712 20.9059 28.1237 21.8936C27.6761 22.8812 27.5668 23.9889 27.8125 25.045C25.8546 24.9468 23.9392 24.4382 22.1906 23.5521C20.4419 22.666 18.899 21.4223 17.662 19.9015C17.034 20.9861 16.8424 22.2691 17.126 23.4899C17.4096 24.7107 18.1472 25.7778 19.189 26.4745C18.4083 26.448 17.6448 26.2383 16.96 25.8625V25.93C16.9613 27.0662 17.355 28.1671 18.0743 29.0466C18.7937 29.9262 19.7946 30.5303 20.908 30.757C20.4854 30.8734 20.0488 30.9315 19.6105 30.9295C19.3015 30.9304 18.9931 30.9018 18.6895 30.844C19.0042 31.8221 19.6169 32.6773 20.4419 33.2897C21.2668 33.9022 22.2627 34.2413 23.29 34.2595C21.5448 35.6302 19.3891 36.3736 17.17 36.37C16.779 36.3717 16.3882 36.3491 16 36.3025C18.2523 37.7384 20.8679 38.5008 23.539 38.5Z" fill="black"/>
<circle cx="28" cy="28" r="27.5" stroke="#0A0A0B"/>
</svg>
